<mxfile host="app.diagrams.net" modified="2021-09-12T12:59:43.168Z" agent="5.0 (Windows NT 10.0; Win64; x64) AppleWebKit/537.36 (KHTML, like Gecko) Chrome/93.0.4577.63 Safari/537.36 Edg/93.0.961.38" etag="iBq8qaCBeziNrm6EMLBp" version="15.1.4" type="github">
  <diagram id="M3zIEjrVUpGc1rC4TXOP" name="Page-1">
    <mxGraphModel dx="1483" dy="2009" grid="1" gridSize="10" guides="1" tooltips="1" connect="1" arrows="1" fold="1" page="1" pageScale="1" pageWidth="827" pageHeight="1169" math="0" shadow="0">
      <root>
        <mxCell id="0" />
        <mxCell id="1" parent="0" />
        <mxCell id="bA7a3gXTjvqMUb_rO1Sc-1" value="" style="edgeStyle=orthogonalEdgeStyle;rounded=0;orthogonalLoop=1;jettySize=auto;html=1;entryX=0;entryY=0.5;entryDx=0;entryDy=0;" parent="1" source="bA7a3gXTjvqMUb_rO1Sc-2" target="W5FOuO3AA2OC9GBHSDxW-2" edge="1">
          <mxGeometry relative="1" as="geometry">
            <mxPoint x="160" y="65" as="targetPoint" />
          </mxGeometry>
        </mxCell>
        <mxCell id="bA7a3gXTjvqMUb_rO1Sc-2" value="로그인" style="ellipse;whiteSpace=wrap;html=1;" parent="1" vertex="1">
          <mxGeometry x="20" y="40" width="80" height="50" as="geometry" />
        </mxCell>
        <mxCell id="W5FOuO3AA2OC9GBHSDxW-1" style="edgeStyle=orthogonalEdgeStyle;rounded=0;orthogonalLoop=1;jettySize=auto;html=1;" parent="1" source="W5FOuO3AA2OC9GBHSDxW-2" edge="1">
          <mxGeometry relative="1" as="geometry">
            <mxPoint x="300" y="65" as="targetPoint" />
          </mxGeometry>
        </mxCell>
        <mxCell id="W5FOuO3AA2OC9GBHSDxW-2" value="추가정보등록" style="rounded=0;whiteSpace=wrap;html=1;" parent="1" vertex="1">
          <mxGeometry x="150" y="45" width="100" height="40" as="geometry" />
        </mxCell>
        <mxCell id="W5FOuO3AA2OC9GBHSDxW-3" value="" style="shape=image;verticalLabelPosition=bottom;labelBackgroundColor=#ffffff;verticalAlign=top;aspect=fixed;imageAspect=0;image=data:image/png,iVBORw0KGgoAAAANSUhEUgAAADAAAAAmCAYAAACCjRgBAAAHOUlEQVRYCdWZZ2gVWxCAY42dxCgWrFExVhSN2HtH8I/5oUSDiopgB1ETxfJDRey9KxqTWGPBiomgInZBVOwFezf2PvIN7yx7dzfee303z7yBye7dc86c6TPnJEz+5xAWLP+fP3+Ws2fPyunTp+Xo0aMyc+ZMGTBggCQkJCj269dPwL59+yqa32acubNmzZJjx44pjXPnzsnXr1+DZcOa71eA27dvy/bt22XUqFHSrl07qVmzpoSFhYUUa9WqpbTHjBmje927d89i0N+LpwBv376V1atXK9GiRYu6mC1RooSUK1dONY5go0ePVpw4caJaZNWqVZKamqq4cuVKmTFjhiQlJVnzWINFoAEtp0KKFy8uXbp0kXXr1snHjx9/K4NLgB07dkjVqlUtovny5ZO6devKlClTZN68eXLjxg15+fKlZGVl/ZZwIIPQgNbNmzeV9tSpU6VOnTqSP39+a38svnv37mzJ+QiApow2YHru3Lly+fLlbBfn1MCVK1dkzpw5Urt2bYufZcuWeW5nCfD06VPBdAUKFFA3IFj/Nnz69EkmTZokeEHZsmXl3bt3LpYsAa5du6bSli9fPiTu4drpDz88fPhQSpUqJYUKFZJnz565qFgCXL9+XcLDw1UITLd27Vq/AeSiFsIPxMfSpUulWrVqylNUVJQ8f/7ctYOnACYOYmJiZMSIEZKeni4vXrxwLQ71h8ePH+tegwcPlujoaMv/8+TJIyVLlvQvABNbtmyphcZIboQpXbq0IBApcOHChbJkyRI5c+aMvHnzxgfxWyeQCp3zTpw4IYsWLVJaQ4cOVdqRkZEW0+xLfZg/f740bNhQvcOvBVjUuXNn3f/Dhw+qDSxQo0YNDSQjjP1ZpEgRYWOD1atXl+bNm0vHjh0VmzVrpto04zwLFy7sw6ihhwuz19ixY2Xfvn1ilBEbG6v7ByRAhw4dnAqUnz9/Cqlt69atsmLFCmWsTZs20qJFCylTpownM4Ypr2eFChXU0tDo2rWrFixoUw/YywmNGjXS2hCQAFTAYACiJ0+eDApxp2AgYAvkzZtX0A7azi2AcgjgYsWK+Q9ik0YpaOPGjRNS69+CS5cuybBhw6RgwYLqogGnUTKR8VuqMsFItjh06JDkZHV+//69Bi6tNl2v4YFnUGm0bdu2kpaWppnEToR3cjPNVv/+/WXx4sWKFLyLFy9q9ab4+EP6fzpds75Pnz5Ks1KlSj5M487t27cXmkv6MpQZUBB36tRJvYZscP78ea0JELJ3qE7B+E1bTIrE1E7Ehxnzap3ttFBQt27ddE9cyACpnXn0a07wqcRMwmW8gFPTkSNHZMuWLdqlQrR169bSqlUradCggfYqdma83jlbkBJZw9ru3burJaB5/Phxr2312+vXr2XXrl1CbXKCSwC0/Sdw69YtwT3IGlRZO/INa969e9cvaWhs3LhR1q9fLxs2bJDMzMzfrvERgIMEVZIY+K/h8OHD0rRpU584MFbEwjt37vRkyUcAWlaziODKyMiQL1++eC4M5cdp06bpvgQq52I0f+rUKdm8ebNwSouIiNDx+Ph41wWAjwAQoPe29yr16tWTIUOGyN69e+XChQuh5FtpzZ49W5nr2bOn3Llzx5M+2QceUC5PO/gIwAQC6+rVqzJo0CBLcmMVnpwVEIpx+nWDKSkp2ssQcLQKJp3yG3zw4IEGIvONO9y/f1/TI0Ht1QPZGeW9V69eKsTBgwetIZcA9mYOybdt2yaTJ0+W+vXrS8WKFZWAXSDnO9UcC9Klgrgl1dReIEeOHKkMGK06Lfvjxw/p3bu3DBw40EcwzgukYgRmDuASILs0ymSTSgnyTZs2aann/ADSmTZp0kR7d84NnCdAenpSJ2O02RRKbja+f/8uVapU0THlxPYHa5ByaWmcEBcXp0p89eqVDlkCmDMxZfzfAszRdoDZuQbVG+uNHz/e2o5TH3dB3I7QvCEENyOkVHOgp+1mHWkZsATAPJiaQOZiKqeBq0UYmTBhgrUV2cfpkuY3N4TAgQMHdM6ePXv0tyUAmiIQzQLcguMclskJ4LYBDXP+NYCW0TZ3QsYC9Ez79++3fJ7LNXg014+WAIYIQeu8/ySwyc8QQnO4SCigcePG2iOZgLTTJPgRwgnEE4FsXMolAAtobZOTkzVt2WuCsU7lypW1QyQwhw8fLtyaLV++PCAkA5EAANZA0+vWLTExUdasWeMTQ9Qi5rOnAU8BzCDPJ0+e6Fl4+vTpeuFK20u3aYT5kyeZiYz27ds3rSsoyQSlfW/7OzHAZTA3dI8ePbKG/ApgzfznhU25LcCdiBmDaJHcTar0Qv5PwDmA+dxcmxaFGkCrQAIh+3DZawcEJS5MO8FVvx2CFsC+OFTvdKDc/WBNGOUqpkePHlqwqBV85zyCCzkhVwgAUwQymuZARTXHIjwJ2gULFmhcOpnnd64RwM4c/2AxaP/u9Z4rBfBiNLtvvwA4uY2TXQ3xdAAAAABJRU5ErkJggg==;" parent="1" vertex="1">
          <mxGeometry x="181.06" y="90" width="37.89" height="30" as="geometry" />
        </mxCell>
        <mxCell id="W5FOuO3AA2OC9GBHSDxW-4" value="&lt;font style=&quot;font-size: 9px&quot;&gt;*입력정보&lt;br&gt;&lt;span style=&quot;font-family: &amp;#34;맑은 고딕&amp;#34;&quot;&gt;기업/투자사명&lt;br&gt;사업자등록번호&lt;br&gt;로고, 주소, 대표자명&lt;br&gt;회사설립일, 직원수&lt;br&gt;국가, 홈페이지,&lt;br&gt;회사소개서,&lt;br&gt;회사 한줄소개&lt;br&gt;기업소개 이미지&lt;/span&gt;&lt;span style=&quot;font-family: &amp;#34;맑은 고딕&amp;#34;&quot;&gt;&lt;br&gt;&lt;/span&gt;&lt;/font&gt;" style="text;html=1;resizable=0;autosize=1;align=left;verticalAlign=middle;points=[];fillColor=none;strokeColor=none;rounded=0;" parent="1" vertex="1">
          <mxGeometry x="150" y="120" width="110" height="140" as="geometry" />
        </mxCell>
        <mxCell id="z12aYxha3YP1zWm_-wce-2" style="edgeStyle=orthogonalEdgeStyle;rounded=0;orthogonalLoop=1;jettySize=auto;html=1;entryX=0;entryY=0.5;entryDx=0;entryDy=0;" edge="1" parent="1" source="W5FOuO3AA2OC9GBHSDxW-5" target="z12aYxha3YP1zWm_-wce-1">
          <mxGeometry relative="1" as="geometry" />
        </mxCell>
        <mxCell id="W5FOuO3AA2OC9GBHSDxW-5" value="협업정보등록" style="rounded=0;whiteSpace=wrap;html=1;" parent="1" vertex="1">
          <mxGeometry x="300" y="45" width="100" height="40" as="geometry" />
        </mxCell>
        <mxCell id="W5FOuO3AA2OC9GBHSDxW-6" value="" style="shape=image;verticalLabelPosition=bottom;labelBackgroundColor=#ffffff;verticalAlign=top;aspect=fixed;imageAspect=0;image=data:image/png,iVBORw0KGgoAAAANSUhEUgAAADAAAAAmCAYAAACCjRgBAAAHOUlEQVRYCdWZZ2gVWxCAY42dxCgWrFExVhSN2HtH8I/5oUSDiopgB1ETxfJDRey9KxqTWGPBiomgInZBVOwFezf2PvIN7yx7dzfee303z7yBye7dc86c6TPnJEz+5xAWLP+fP3+Ws2fPyunTp+Xo0aMyc+ZMGTBggCQkJCj269dPwL59+yqa32acubNmzZJjx44pjXPnzsnXr1+DZcOa71eA27dvy/bt22XUqFHSrl07qVmzpoSFhYUUa9WqpbTHjBmje927d89i0N+LpwBv376V1atXK9GiRYu6mC1RooSUK1dONY5go0ePVpw4caJaZNWqVZKamqq4cuVKmTFjhiQlJVnzWINFoAEtp0KKFy8uXbp0kXXr1snHjx9/K4NLgB07dkjVqlUtovny5ZO6devKlClTZN68eXLjxg15+fKlZGVl/ZZwIIPQgNbNmzeV9tSpU6VOnTqSP39+a38svnv37mzJ+QiApow2YHru3Lly+fLlbBfn1MCVK1dkzpw5Urt2bYufZcuWeW5nCfD06VPBdAUKFFA3IFj/Nnz69EkmTZokeEHZsmXl3bt3LpYsAa5du6bSli9fPiTu4drpDz88fPhQSpUqJYUKFZJnz565qFgCXL9+XcLDw1UITLd27Vq/AeSiFsIPxMfSpUulWrVqylNUVJQ8f/7ctYOnACYOYmJiZMSIEZKeni4vXrxwLQ71h8ePH+tegwcPlujoaMv/8+TJIyVLlvQvABNbtmyphcZIboQpXbq0IBApcOHChbJkyRI5c+aMvHnzxgfxWyeQCp3zTpw4IYsWLVJaQ4cOVdqRkZEW0+xLfZg/f740bNhQvcOvBVjUuXNn3f/Dhw+qDSxQo0YNDSQjjP1ZpEgRYWOD1atXl+bNm0vHjh0VmzVrpto04zwLFy7sw6ihhwuz19ixY2Xfvn1ilBEbG6v7ByRAhw4dnAqUnz9/Cqlt69atsmLFCmWsTZs20qJFCylTpownM4Ypr2eFChXU0tDo2rWrFixoUw/YywmNGjXS2hCQAFTAYACiJ0+eDApxp2AgYAvkzZtX0A7azi2AcgjgYsWK+Q9ik0YpaOPGjRNS69+CS5cuybBhw6RgwYLqogGnUTKR8VuqMsFItjh06JDkZHV+//69Bi6tNl2v4YFnUGm0bdu2kpaWppnEToR3cjPNVv/+/WXx4sWKFLyLFy9q9ab4+EP6fzpds75Pnz5Ks1KlSj5M487t27cXmkv6MpQZUBB36tRJvYZscP78ea0JELJ3qE7B+E1bTIrE1E7Ehxnzap3ttFBQt27ddE9cyACpnXn0a07wqcRMwmW8gFPTkSNHZMuWLdqlQrR169bSqlUradCggfYqdma83jlbkBJZw9ru3burJaB5/Phxr2312+vXr2XXrl1CbXKCSwC0/Sdw69YtwT3IGlRZO/INa969e9cvaWhs3LhR1q9fLxs2bJDMzMzfrvERgIMEVZIY+K/h8OHD0rRpU584MFbEwjt37vRkyUcAWlaziODKyMiQL1++eC4M5cdp06bpvgQq52I0f+rUKdm8ebNwSouIiNDx+Ph41wWAjwAQoPe29yr16tWTIUOGyN69e+XChQuh5FtpzZ49W5nr2bOn3Llzx5M+2QceUC5PO/gIwAQC6+rVqzJo0CBLcmMVnpwVEIpx+nWDKSkp2ssQcLQKJp3yG3zw4IEGIvONO9y/f1/TI0Ht1QPZGeW9V69eKsTBgwetIZcA9mYOybdt2yaTJ0+W+vXrS8WKFZWAXSDnO9UcC9Klgrgl1dReIEeOHKkMGK06Lfvjxw/p3bu3DBw40EcwzgukYgRmDuASILs0ymSTSgnyTZs2aann/ADSmTZp0kR7d84NnCdAenpSJ2O02RRKbja+f/8uVapU0THlxPYHa5ByaWmcEBcXp0p89eqVDlkCmDMxZfzfAszRdoDZuQbVG+uNHz/e2o5TH3dB3I7QvCEENyOkVHOgp+1mHWkZsATAPJiaQOZiKqeBq0UYmTBhgrUV2cfpkuY3N4TAgQMHdM6ePXv0tyUAmiIQzQLcguMclskJ4LYBDXP+NYCW0TZ3QsYC9Ez79++3fJ7LNXg014+WAIYIQeu8/ySwyc8QQnO4SCigcePG2iOZgLTTJPgRwgnEE4FsXMolAAtobZOTkzVt2WuCsU7lypW1QyQwhw8fLtyaLV++PCAkA5EAANZA0+vWLTExUdasWeMTQ9Qi5rOnAU8BzCDPJ0+e6Fl4+vTpeuFK20u3aYT5kyeZiYz27ds3rSsoyQSlfW/7OzHAZTA3dI8ePbKG/ApgzfznhU25LcCdiBmDaJHcTar0Qv5PwDmA+dxcmxaFGkCrQAIh+3DZawcEJS5MO8FVvx2CFsC+OFTvdKDc/WBNGOUqpkePHlqwqBV85zyCCzkhVwgAUwQymuZARTXHIjwJ2gULFmhcOpnnd64RwM4c/2AxaP/u9Z4rBfBiNLtvvwA4uY2TXQ3xdAAAAABJRU5ErkJggg==;" parent="1" vertex="1">
          <mxGeometry x="331.06" y="90" width="37.89" height="30" as="geometry" />
        </mxCell>
        <mxCell id="W5FOuO3AA2OC9GBHSDxW-7" value="&lt;font style=&quot;font-size: 9px&quot;&gt;*입력정보&lt;br&gt;&lt;span style=&quot;font-family: &amp;#34;맑은 고딕&amp;#34;&quot;&gt;비즈니스분야, 활용기술&lt;br&gt;사업계획서&lt;br&gt;협업제안거부 토글&lt;br&gt;&lt;/span&gt;&lt;/font&gt;" style="text;html=1;resizable=0;autosize=1;align=left;verticalAlign=middle;points=[];fillColor=none;strokeColor=none;rounded=0;" parent="1" vertex="1">
          <mxGeometry x="300" y="120" width="120" height="70" as="geometry" />
        </mxCell>
        <mxCell id="z12aYxha3YP1zWm_-wce-47" style="edgeStyle=orthogonalEdgeStyle;rounded=0;orthogonalLoop=1;jettySize=auto;html=1;entryX=0;entryY=0.5;entryDx=0;entryDy=0;" edge="1" parent="1" source="z12aYxha3YP1zWm_-wce-1" target="z12aYxha3YP1zWm_-wce-7">
          <mxGeometry relative="1" as="geometry">
            <Array as="points">
              <mxPoint x="490" y="-5" />
            </Array>
          </mxGeometry>
        </mxCell>
        <mxCell id="z12aYxha3YP1zWm_-wce-1" value="프로젝트&lt;br&gt;협업여부" style="rhombus;whiteSpace=wrap;html=1;" vertex="1" parent="1">
          <mxGeometry x="450" y="30" width="80" height="70" as="geometry" />
        </mxCell>
        <mxCell id="z12aYxha3YP1zWm_-wce-4" style="edgeStyle=orthogonalEdgeStyle;rounded=0;orthogonalLoop=1;jettySize=auto;html=1;" edge="1" parent="1">
          <mxGeometry relative="1" as="geometry">
            <mxPoint x="489.99714285714265" y="99.96714285714324" as="sourcePoint" />
            <mxPoint x="560" y="135" as="targetPoint" />
            <Array as="points">
              <mxPoint x="490.14" y="135" />
            </Array>
          </mxGeometry>
        </mxCell>
        <mxCell id="z12aYxha3YP1zWm_-wce-5" value="YES" style="text;html=1;resizable=0;autosize=1;align=center;verticalAlign=middle;points=[];fillColor=none;strokeColor=none;rounded=0;fontSize=10;" vertex="1" parent="1">
          <mxGeometry x="519.14" width="40" height="20" as="geometry" />
        </mxCell>
        <mxCell id="z12aYxha3YP1zWm_-wce-6" value="NO" style="text;html=1;resizable=0;autosize=1;align=center;verticalAlign=middle;points=[];fillColor=none;strokeColor=none;rounded=0;fontSize=10;" vertex="1" parent="1">
          <mxGeometry x="524.14" y="113" width="30" height="20" as="geometry" />
        </mxCell>
        <mxCell id="z12aYxha3YP1zWm_-wce-48" style="edgeStyle=orthogonalEdgeStyle;rounded=0;orthogonalLoop=1;jettySize=auto;html=1;entryX=0;entryY=0.5;entryDx=0;entryDy=0;" edge="1" parent="1" source="z12aYxha3YP1zWm_-wce-7" target="z12aYxha3YP1zWm_-wce-46">
          <mxGeometry relative="1" as="geometry" />
        </mxCell>
        <mxCell id="z12aYxha3YP1zWm_-wce-7" value="프로젝트 등록" style="rounded=0;whiteSpace=wrap;html=1;" vertex="1" parent="1">
          <mxGeometry x="564" y="-25" width="100" height="40" as="geometry" />
        </mxCell>
        <mxCell id="z12aYxha3YP1zWm_-wce-8" value="" style="endArrow=none;dashed=1;html=1;dashPattern=1 3;strokeWidth=2;" edge="1" parent="1">
          <mxGeometry width="50" height="50" relative="1" as="geometry">
            <mxPoint x="613.5" y="-25" as="sourcePoint" />
            <mxPoint x="614" y="-70" as="targetPoint" />
          </mxGeometry>
        </mxCell>
        <mxCell id="z12aYxha3YP1zWm_-wce-9" value="프로젝트 삭제" style="rounded=0;whiteSpace=wrap;html=1;" vertex="1" parent="1">
          <mxGeometry x="564" y="-110" width="100" height="40" as="geometry" />
        </mxCell>
        <mxCell id="z12aYxha3YP1zWm_-wce-10" value="프로젝트 진행" style="rounded=0;whiteSpace=wrap;html=1;" vertex="1" parent="1">
          <mxGeometry x="1530" y="-22.5" width="100" height="40" as="geometry" />
        </mxCell>
        <mxCell id="z12aYxha3YP1zWm_-wce-20" style="edgeStyle=orthogonalEdgeStyle;rounded=0;orthogonalLoop=1;jettySize=auto;html=1;entryX=0;entryY=0.5;entryDx=0;entryDy=0;" edge="1" parent="1" source="z12aYxha3YP1zWm_-wce-11" target="z12aYxha3YP1zWm_-wce-13">
          <mxGeometry relative="1" as="geometry" />
        </mxCell>
        <mxCell id="z12aYxha3YP1zWm_-wce-11" value="협업 제안&lt;br style=&quot;font-size: 10px&quot;&gt;&lt;font size=&quot;1&quot;&gt;(협업 요청)&lt;/font&gt;" style="rounded=0;whiteSpace=wrap;html=1;" vertex="1" parent="1">
          <mxGeometry x="564" y="113" width="100" height="40" as="geometry" />
        </mxCell>
        <mxCell id="z12aYxha3YP1zWm_-wce-12" value="&lt;div style=&quot;text-align: left&quot;&gt;&lt;span&gt;* ()는 상대방 상태값&lt;/span&gt;&lt;/div&gt;&lt;div style=&quot;text-align: left&quot;&gt;&lt;span&gt;* 취소는 어느상태에서나 가능해야함&lt;/span&gt;&lt;/div&gt;" style="text;html=1;resizable=0;autosize=1;align=center;verticalAlign=middle;points=[];fillColor=none;strokeColor=none;rounded=0;" vertex="1" parent="1">
          <mxGeometry x="40" y="-55" width="210" height="30" as="geometry" />
        </mxCell>
        <mxCell id="z12aYxha3YP1zWm_-wce-13" value="협업&lt;br&gt;수락여부" style="rhombus;whiteSpace=wrap;html=1;rounded=0;fontSize=10;" vertex="1" parent="1">
          <mxGeometry x="710" y="98" width="70" height="70" as="geometry" />
        </mxCell>
        <mxCell id="z12aYxha3YP1zWm_-wce-14" style="edgeStyle=orthogonalEdgeStyle;rounded=0;orthogonalLoop=1;jettySize=auto;html=1;entryX=0;entryY=0.5;entryDx=0;entryDy=0;" edge="1" parent="1" target="z12aYxha3YP1zWm_-wce-16">
          <mxGeometry relative="1" as="geometry">
            <mxPoint x="779" y="133" as="sourcePoint" />
          </mxGeometry>
        </mxCell>
        <mxCell id="z12aYxha3YP1zWm_-wce-15" style="edgeStyle=orthogonalEdgeStyle;rounded=0;orthogonalLoop=1;jettySize=auto;html=1;entryX=0;entryY=0.5;entryDx=0;entryDy=0;" edge="1" parent="1" target="z12aYxha3YP1zWm_-wce-17">
          <mxGeometry relative="1" as="geometry">
            <mxPoint x="744" y="168" as="sourcePoint" />
            <Array as="points">
              <mxPoint x="744" y="208" />
            </Array>
          </mxGeometry>
        </mxCell>
        <mxCell id="z12aYxha3YP1zWm_-wce-22" style="edgeStyle=orthogonalEdgeStyle;rounded=0;orthogonalLoop=1;jettySize=auto;html=1;entryX=0;entryY=0.5;entryDx=0;entryDy=0;" edge="1" parent="1" source="z12aYxha3YP1zWm_-wce-16" target="z12aYxha3YP1zWm_-wce-21">
          <mxGeometry relative="1" as="geometry" />
        </mxCell>
        <mxCell id="z12aYxha3YP1zWm_-wce-16" value="&lt;font&gt;협업제안수락&lt;br&gt;&lt;/font&gt;&lt;font style=&quot;font-size: 9px&quot;&gt;(협업요청수락)&lt;/font&gt;" style="rounded=0;whiteSpace=wrap;html=1;" vertex="1" parent="1">
          <mxGeometry x="820" y="113" width="100" height="40" as="geometry" />
        </mxCell>
        <mxCell id="z12aYxha3YP1zWm_-wce-17" value="&lt;font&gt;협업제안거절&lt;br&gt;&lt;/font&gt;&lt;font style=&quot;font-size: 9px&quot;&gt;(협업요청거절)&lt;/font&gt;" style="rounded=0;whiteSpace=wrap;html=1;" vertex="1" parent="1">
          <mxGeometry x="820" y="188" width="100" height="40" as="geometry" />
        </mxCell>
        <mxCell id="z12aYxha3YP1zWm_-wce-18" value="YES" style="text;html=1;resizable=0;autosize=1;align=center;verticalAlign=middle;points=[];fillColor=none;strokeColor=none;rounded=0;fontSize=10;" vertex="1" parent="1">
          <mxGeometry x="779" y="108" width="40" height="20" as="geometry" />
        </mxCell>
        <mxCell id="z12aYxha3YP1zWm_-wce-19" value="NO" style="text;html=1;resizable=0;autosize=1;align=center;verticalAlign=middle;points=[];fillColor=none;strokeColor=none;rounded=0;fontSize=10;" vertex="1" parent="1">
          <mxGeometry x="781" y="188" width="30" height="20" as="geometry" />
        </mxCell>
        <mxCell id="z12aYxha3YP1zWm_-wce-21" value="&lt;font&gt;미팅제안&lt;br&gt;&lt;/font&gt;&lt;font style=&quot;font-size: 9px&quot;&gt;(미팅요청)&lt;/font&gt;" style="rounded=0;whiteSpace=wrap;html=1;" vertex="1" parent="1">
          <mxGeometry x="970" y="113" width="100" height="40" as="geometry" />
        </mxCell>
        <mxCell id="z12aYxha3YP1zWm_-wce-23" style="edgeStyle=orthogonalEdgeStyle;rounded=0;orthogonalLoop=1;jettySize=auto;html=1;entryX=0;entryY=0.5;entryDx=0;entryDy=0;" edge="1" parent="1" target="z12aYxha3YP1zWm_-wce-24">
          <mxGeometry relative="1" as="geometry">
            <mxPoint x="1070" y="133" as="sourcePoint" />
          </mxGeometry>
        </mxCell>
        <mxCell id="z12aYxha3YP1zWm_-wce-24" value="미팅&lt;br&gt;수락여부" style="rhombus;whiteSpace=wrap;html=1;rounded=0;fontSize=10;" vertex="1" parent="1">
          <mxGeometry x="1110" y="98" width="70" height="70" as="geometry" />
        </mxCell>
        <mxCell id="z12aYxha3YP1zWm_-wce-25" style="edgeStyle=orthogonalEdgeStyle;rounded=0;orthogonalLoop=1;jettySize=auto;html=1;entryX=0;entryY=0.5;entryDx=0;entryDy=0;" edge="1" parent="1" target="z12aYxha3YP1zWm_-wce-26">
          <mxGeometry relative="1" as="geometry">
            <mxPoint x="1180" y="133" as="sourcePoint" />
          </mxGeometry>
        </mxCell>
        <mxCell id="z12aYxha3YP1zWm_-wce-26" value="&lt;font&gt;미팅제안수락&lt;br&gt;&lt;/font&gt;&lt;font style=&quot;font-size: 9px&quot;&gt;(미팅요청수락)&lt;/font&gt;" style="rounded=0;whiteSpace=wrap;html=1;" vertex="1" parent="1">
          <mxGeometry x="1221" y="113" width="100" height="40" as="geometry" />
        </mxCell>
        <mxCell id="z12aYxha3YP1zWm_-wce-27" value="YES" style="text;html=1;resizable=0;autosize=1;align=center;verticalAlign=middle;points=[];fillColor=none;strokeColor=none;rounded=0;fontSize=10;" vertex="1" parent="1">
          <mxGeometry x="1180" y="108" width="40" height="20" as="geometry" />
        </mxCell>
        <mxCell id="z12aYxha3YP1zWm_-wce-28" style="edgeStyle=orthogonalEdgeStyle;rounded=0;orthogonalLoop=1;jettySize=auto;html=1;entryX=0;entryY=0.5;entryDx=0;entryDy=0;" edge="1" parent="1" target="z12aYxha3YP1zWm_-wce-35">
          <mxGeometry relative="1" as="geometry">
            <mxPoint x="1145" y="168" as="sourcePoint" />
            <Array as="points">
              <mxPoint x="1145" y="228" />
            </Array>
          </mxGeometry>
        </mxCell>
        <mxCell id="z12aYxha3YP1zWm_-wce-29" value="미팅제안거절&lt;br&gt;&lt;font style=&quot;font-size: 10px&quot;&gt;(미팅요청거절)&lt;/font&gt;" style="rounded=0;whiteSpace=wrap;html=1;" vertex="1" parent="1">
          <mxGeometry x="1260" y="183" width="100" height="40" as="geometry" />
        </mxCell>
        <mxCell id="z12aYxha3YP1zWm_-wce-30" value="NO" style="text;html=1;resizable=0;autosize=1;align=center;verticalAlign=middle;points=[];fillColor=none;strokeColor=none;rounded=0;fontSize=10;" vertex="1" parent="1">
          <mxGeometry x="1150" y="173" width="30" height="20" as="geometry" />
        </mxCell>
        <mxCell id="z12aYxha3YP1zWm_-wce-31" style="edgeStyle=orthogonalEdgeStyle;rounded=0;orthogonalLoop=1;jettySize=auto;html=1;" edge="1" parent="1" source="z12aYxha3YP1zWm_-wce-32">
          <mxGeometry relative="1" as="geometry">
            <mxPoint x="1020" y="153" as="targetPoint" />
          </mxGeometry>
        </mxCell>
        <mxCell id="z12aYxha3YP1zWm_-wce-32" value="미팅재요청&lt;br&gt;&lt;font style=&quot;font-size: 10px&quot;&gt;(미팅재요청)&lt;/font&gt;" style="rounded=0;whiteSpace=wrap;html=1;" vertex="1" parent="1">
          <mxGeometry x="1260" y="273" width="100" height="40" as="geometry" />
        </mxCell>
        <mxCell id="z12aYxha3YP1zWm_-wce-33" style="edgeStyle=orthogonalEdgeStyle;rounded=0;orthogonalLoop=1;jettySize=auto;html=1;entryX=0;entryY=0.25;entryDx=0;entryDy=0;" edge="1" parent="1" source="z12aYxha3YP1zWm_-wce-35" target="z12aYxha3YP1zWm_-wce-29">
          <mxGeometry relative="1" as="geometry">
            <Array as="points">
              <mxPoint x="1240" y="193" />
              <mxPoint x="1240" y="193" />
            </Array>
          </mxGeometry>
        </mxCell>
        <mxCell id="z12aYxha3YP1zWm_-wce-34" style="edgeStyle=orthogonalEdgeStyle;rounded=0;orthogonalLoop=1;jettySize=auto;html=1;entryX=0.5;entryY=0;entryDx=0;entryDy=0;" edge="1" parent="1" source="z12aYxha3YP1zWm_-wce-35" target="z12aYxha3YP1zWm_-wce-32">
          <mxGeometry relative="1" as="geometry">
            <Array as="points">
              <mxPoint x="1310" y="263" />
            </Array>
          </mxGeometry>
        </mxCell>
        <mxCell id="z12aYxha3YP1zWm_-wce-35" value="재요청여부" style="rhombus;whiteSpace=wrap;html=1;rounded=0;fontSize=10;" vertex="1" parent="1">
          <mxGeometry x="1160" y="193" width="70" height="70" as="geometry" />
        </mxCell>
        <mxCell id="z12aYxha3YP1zWm_-wce-36" value="YES" style="text;html=1;resizable=0;autosize=1;align=center;verticalAlign=middle;points=[];fillColor=none;strokeColor=none;rounded=0;fontSize=10;" vertex="1" parent="1">
          <mxGeometry x="1230" y="233" width="40" height="20" as="geometry" />
        </mxCell>
        <mxCell id="z12aYxha3YP1zWm_-wce-37" value="NO" style="text;html=1;resizable=0;autosize=1;align=center;verticalAlign=middle;points=[];fillColor=none;strokeColor=none;rounded=0;fontSize=10;" vertex="1" parent="1">
          <mxGeometry x="1220" y="173" width="30" height="20" as="geometry" />
        </mxCell>
        <mxCell id="z12aYxha3YP1zWm_-wce-38" style="edgeStyle=orthogonalEdgeStyle;rounded=0;orthogonalLoop=1;jettySize=auto;html=1;" edge="1" parent="1">
          <mxGeometry relative="1" as="geometry">
            <mxPoint x="1321" y="133" as="sourcePoint" />
            <mxPoint x="1360" y="133" as="targetPoint" />
          </mxGeometry>
        </mxCell>
        <mxCell id="z12aYxha3YP1zWm_-wce-42" value="협업확정&lt;br&gt;&lt;font style=&quot;font-size: 10px&quot;&gt;(협업확정)&lt;/font&gt;" style="rounded=0;whiteSpace=wrap;html=1;" vertex="1" parent="1">
          <mxGeometry x="1360" y="113" width="100" height="40" as="geometry" />
        </mxCell>
        <mxCell id="z12aYxha3YP1zWm_-wce-46" value="협업요청&lt;br&gt;&lt;font style=&quot;font-size: 10px&quot;&gt;(협업제안)&lt;/font&gt;" style="rounded=0;whiteSpace=wrap;html=1;" vertex="1" parent="1">
          <mxGeometry x="710" y="-25" width="100" height="40" as="geometry" />
        </mxCell>
        <mxCell id="z12aYxha3YP1zWm_-wce-49" style="edgeStyle=orthogonalEdgeStyle;rounded=0;orthogonalLoop=1;jettySize=auto;html=1;entryX=0;entryY=0.5;entryDx=0;entryDy=0;" edge="1" parent="1" target="z12aYxha3YP1zWm_-wce-51">
          <mxGeometry relative="1" as="geometry">
            <mxPoint x="811" y="-5" as="sourcePoint" />
          </mxGeometry>
        </mxCell>
        <mxCell id="z12aYxha3YP1zWm_-wce-50" style="edgeStyle=orthogonalEdgeStyle;rounded=0;orthogonalLoop=1;jettySize=auto;html=1;entryX=0;entryY=0.5;entryDx=0;entryDy=0;" edge="1" parent="1" target="z12aYxha3YP1zWm_-wce-52">
          <mxGeometry relative="1" as="geometry">
            <mxPoint x="760" y="15" as="sourcePoint" />
            <Array as="points">
              <mxPoint x="760" y="55" />
            </Array>
          </mxGeometry>
        </mxCell>
        <mxCell id="z12aYxha3YP1zWm_-wce-56" style="edgeStyle=orthogonalEdgeStyle;rounded=0;orthogonalLoop=1;jettySize=auto;html=1;entryX=0;entryY=0.5;entryDx=0;entryDy=0;" edge="1" parent="1" source="z12aYxha3YP1zWm_-wce-51" target="z12aYxha3YP1zWm_-wce-55">
          <mxGeometry relative="1" as="geometry" />
        </mxCell>
        <mxCell id="z12aYxha3YP1zWm_-wce-51" value="&lt;font&gt;협업요청수락&lt;br&gt;&lt;/font&gt;&lt;font style=&quot;font-size: 9px&quot;&gt;(협업제안수락)&lt;/font&gt;" style="rounded=0;whiteSpace=wrap;html=1;" vertex="1" parent="1">
          <mxGeometry x="852" y="-25" width="100" height="40" as="geometry" />
        </mxCell>
        <mxCell id="z12aYxha3YP1zWm_-wce-52" value="&lt;font&gt;협업요청거절&lt;br&gt;&lt;/font&gt;&lt;font style=&quot;font-size: 9px&quot;&gt;(협업제안거절)&lt;/font&gt;" style="rounded=0;whiteSpace=wrap;html=1;" vertex="1" parent="1">
          <mxGeometry x="852" y="35" width="100" height="40" as="geometry" />
        </mxCell>
        <mxCell id="z12aYxha3YP1zWm_-wce-53" value="YES" style="text;html=1;resizable=0;autosize=1;align=center;verticalAlign=middle;points=[];fillColor=none;strokeColor=none;rounded=0;fontSize=10;" vertex="1" parent="1">
          <mxGeometry x="811" y="-30" width="40" height="20" as="geometry" />
        </mxCell>
        <mxCell id="z12aYxha3YP1zWm_-wce-54" value="NO" style="text;html=1;resizable=0;autosize=1;align=center;verticalAlign=middle;points=[];fillColor=none;strokeColor=none;rounded=0;fontSize=10;" vertex="1" parent="1">
          <mxGeometry x="815" y="35" width="30" height="20" as="geometry" />
        </mxCell>
        <mxCell id="z12aYxha3YP1zWm_-wce-55" value="&lt;font&gt;미팅요청&lt;br&gt;&lt;/font&gt;&lt;font style=&quot;font-size: 9px&quot;&gt;(미팅제안)&lt;/font&gt;" style="rounded=0;whiteSpace=wrap;html=1;" vertex="1" parent="1">
          <mxGeometry x="1000" y="-25" width="100" height="40" as="geometry" />
        </mxCell>
        <mxCell id="z12aYxha3YP1zWm_-wce-74" style="edgeStyle=orthogonalEdgeStyle;rounded=0;orthogonalLoop=1;jettySize=auto;html=1;entryX=0;entryY=0.5;entryDx=0;entryDy=0;" edge="1" parent="1" target="z12aYxha3YP1zWm_-wce-75">
          <mxGeometry relative="1" as="geometry">
            <mxPoint x="1100" y="-2.5" as="sourcePoint" />
          </mxGeometry>
        </mxCell>
        <mxCell id="z12aYxha3YP1zWm_-wce-99" style="edgeStyle=orthogonalEdgeStyle;rounded=0;orthogonalLoop=1;jettySize=auto;html=1;entryX=0;entryY=0.5;entryDx=0;entryDy=0;" edge="1" parent="1" source="z12aYxha3YP1zWm_-wce-75" target="z12aYxha3YP1zWm_-wce-80">
          <mxGeometry relative="1" as="geometry">
            <Array as="points">
              <mxPoint x="1175" y="-85" />
            </Array>
          </mxGeometry>
        </mxCell>
        <mxCell id="z12aYxha3YP1zWm_-wce-75" value="미팅&lt;br&gt;수락여부" style="rhombus;whiteSpace=wrap;html=1;rounded=0;fontSize=10;" vertex="1" parent="1">
          <mxGeometry x="1140" y="-37.5" width="70" height="70" as="geometry" />
        </mxCell>
        <mxCell id="z12aYxha3YP1zWm_-wce-76" style="edgeStyle=orthogonalEdgeStyle;rounded=0;orthogonalLoop=1;jettySize=auto;html=1;entryX=0;entryY=0.5;entryDx=0;entryDy=0;" edge="1" parent="1">
          <mxGeometry relative="1" as="geometry">
            <mxPoint x="1210" y="-2.5" as="sourcePoint" />
            <mxPoint x="1251" y="-2.5" as="targetPoint" />
          </mxGeometry>
        </mxCell>
        <mxCell id="z12aYxha3YP1zWm_-wce-77" value="YES" style="text;html=1;resizable=0;autosize=1;align=center;verticalAlign=middle;points=[];fillColor=none;strokeColor=none;rounded=0;fontSize=10;" vertex="1" parent="1">
          <mxGeometry x="1190" y="10" width="40" height="20" as="geometry" />
        </mxCell>
        <mxCell id="z12aYxha3YP1zWm_-wce-79" value="NO" style="text;html=1;resizable=0;autosize=1;align=center;verticalAlign=middle;points=[];fillColor=none;strokeColor=none;rounded=0;fontSize=10;" vertex="1" parent="1">
          <mxGeometry x="1140" y="-55" width="30" height="20" as="geometry" />
        </mxCell>
        <mxCell id="z12aYxha3YP1zWm_-wce-96" style="edgeStyle=orthogonalEdgeStyle;rounded=0;orthogonalLoop=1;jettySize=auto;html=1;entryX=0;entryY=0.5;entryDx=0;entryDy=0;" edge="1" parent="1" source="z12aYxha3YP1zWm_-wce-80" target="z12aYxha3YP1zWm_-wce-88">
          <mxGeometry relative="1" as="geometry">
            <Array as="points">
              <mxPoint x="1225" y="-150" />
            </Array>
          </mxGeometry>
        </mxCell>
        <mxCell id="z12aYxha3YP1zWm_-wce-100" style="edgeStyle=orthogonalEdgeStyle;rounded=0;orthogonalLoop=1;jettySize=auto;html=1;entryX=0;entryY=0.5;entryDx=0;entryDy=0;" edge="1" parent="1" source="z12aYxha3YP1zWm_-wce-80" target="z12aYxha3YP1zWm_-wce-89">
          <mxGeometry relative="1" as="geometry" />
        </mxCell>
        <mxCell id="z12aYxha3YP1zWm_-wce-80" value="재요청여부" style="rhombus;whiteSpace=wrap;html=1;rounded=0;fontSize=10;" vertex="1" parent="1">
          <mxGeometry x="1190" y="-120" width="70" height="70" as="geometry" />
        </mxCell>
        <mxCell id="z12aYxha3YP1zWm_-wce-83" value="&lt;font&gt;미팅요청수락&lt;br&gt;&lt;/font&gt;&lt;font style=&quot;font-size: 9px&quot;&gt;(미팅제안수락)&lt;/font&gt;" style="rounded=0;whiteSpace=wrap;html=1;" vertex="1" parent="1">
          <mxGeometry x="1250" y="-22.5" width="100" height="40" as="geometry" />
        </mxCell>
        <mxCell id="z12aYxha3YP1zWm_-wce-85" style="edgeStyle=orthogonalEdgeStyle;rounded=0;orthogonalLoop=1;jettySize=auto;html=1;" edge="1" parent="1">
          <mxGeometry relative="1" as="geometry">
            <mxPoint x="1350" y="-2.5" as="sourcePoint" />
            <mxPoint x="1389" y="-2.5" as="targetPoint" />
          </mxGeometry>
        </mxCell>
        <mxCell id="z12aYxha3YP1zWm_-wce-87" style="edgeStyle=orthogonalEdgeStyle;rounded=0;orthogonalLoop=1;jettySize=auto;html=1;entryX=0;entryY=0.5;entryDx=0;entryDy=0;" edge="1" parent="1" source="z12aYxha3YP1zWm_-wce-86" target="z12aYxha3YP1zWm_-wce-10">
          <mxGeometry relative="1" as="geometry" />
        </mxCell>
        <mxCell id="z12aYxha3YP1zWm_-wce-86" value="협업확정&lt;br&gt;&lt;font style=&quot;font-size: 10px&quot;&gt;(협업확정)&lt;/font&gt;" style="rounded=0;whiteSpace=wrap;html=1;" vertex="1" parent="1">
          <mxGeometry x="1389" y="-22.5" width="100" height="40" as="geometry" />
        </mxCell>
        <mxCell id="z12aYxha3YP1zWm_-wce-97" style="edgeStyle=orthogonalEdgeStyle;rounded=0;orthogonalLoop=1;jettySize=auto;html=1;" edge="1" parent="1" source="z12aYxha3YP1zWm_-wce-88" target="z12aYxha3YP1zWm_-wce-55">
          <mxGeometry relative="1" as="geometry">
            <Array as="points">
              <mxPoint x="1330" y="-180" />
              <mxPoint x="1050" y="-180" />
            </Array>
          </mxGeometry>
        </mxCell>
        <mxCell id="z12aYxha3YP1zWm_-wce-88" value="미팅재요청&lt;br&gt;&lt;font style=&quot;font-size: 10px&quot;&gt;(미팅재요청)&lt;/font&gt;" style="rounded=0;whiteSpace=wrap;html=1;" vertex="1" parent="1">
          <mxGeometry x="1280" y="-170" width="100" height="40" as="geometry" />
        </mxCell>
        <mxCell id="z12aYxha3YP1zWm_-wce-89" value="미팅요청거절&lt;br&gt;&lt;font style=&quot;font-size: 10px&quot;&gt;(미팅제안거절)&lt;/font&gt;" style="rounded=0;whiteSpace=wrap;html=1;" vertex="1" parent="1">
          <mxGeometry x="1300" y="-105" width="100" height="40" as="geometry" />
        </mxCell>
        <mxCell id="z12aYxha3YP1zWm_-wce-92" value="NO" style="text;html=1;resizable=0;autosize=1;align=center;verticalAlign=middle;points=[];fillColor=none;strokeColor=none;rounded=0;fontSize=10;" vertex="1" parent="1">
          <mxGeometry x="1256" y="-110" width="30" height="20" as="geometry" />
        </mxCell>
        <mxCell id="z12aYxha3YP1zWm_-wce-93" value="YES" style="text;html=1;resizable=0;autosize=1;align=center;verticalAlign=middle;points=[];fillColor=none;strokeColor=none;rounded=0;fontSize=10;" vertex="1" parent="1">
          <mxGeometry x="1221" y="-170" width="40" height="20" as="geometry" />
        </mxCell>
        <mxCell id="z12aYxha3YP1zWm_-wce-101" value="" style="shape=image;verticalLabelPosition=bottom;labelBackgroundColor=#ffffff;verticalAlign=top;aspect=fixed;imageAspect=0;image=data:image/png,iVBORw0KGgoAAAANSUhEUgAAADAAAAAmCAYAAACCjRgBAAAHOUlEQVRYCdWZZ2gVWxCAY42dxCgWrFExVhSN2HtH8I/5oUSDiopgB1ETxfJDRey9KxqTWGPBiomgInZBVOwFezf2PvIN7yx7dzfee303z7yBye7dc86c6TPnJEz+5xAWLP+fP3+Ws2fPyunTp+Xo0aMyc+ZMGTBggCQkJCj269dPwL59+yqa32acubNmzZJjx44pjXPnzsnXr1+DZcOa71eA27dvy/bt22XUqFHSrl07qVmzpoSFhYUUa9WqpbTHjBmje927d89i0N+LpwBv376V1atXK9GiRYu6mC1RooSUK1dONY5go0ePVpw4caJaZNWqVZKamqq4cuVKmTFjhiQlJVnzWINFoAEtp0KKFy8uXbp0kXXr1snHjx9/K4NLgB07dkjVqlUtovny5ZO6devKlClTZN68eXLjxg15+fKlZGVl/ZZwIIPQgNbNmzeV9tSpU6VOnTqSP39+a38svnv37mzJ+QiApow2YHru3Lly+fLlbBfn1MCVK1dkzpw5Urt2bYufZcuWeW5nCfD06VPBdAUKFFA3IFj/Nnz69EkmTZokeEHZsmXl3bt3LpYsAa5du6bSli9fPiTu4drpDz88fPhQSpUqJYUKFZJnz565qFgCXL9+XcLDw1UITLd27Vq/AeSiFsIPxMfSpUulWrVqylNUVJQ8f/7ctYOnACYOYmJiZMSIEZKeni4vXrxwLQ71h8ePH+tegwcPlujoaMv/8+TJIyVLlvQvABNbtmyphcZIboQpXbq0IBApcOHChbJkyRI5c+aMvHnzxgfxWyeQCp3zTpw4IYsWLVJaQ4cOVdqRkZEW0+xLfZg/f740bNhQvcOvBVjUuXNn3f/Dhw+qDSxQo0YNDSQjjP1ZpEgRYWOD1atXl+bNm0vHjh0VmzVrpto04zwLFy7sw6ihhwuz19ixY2Xfvn1ilBEbG6v7ByRAhw4dnAqUnz9/Cqlt69atsmLFCmWsTZs20qJFCylTpownM4Ypr2eFChXU0tDo2rWrFixoUw/YywmNGjXS2hCQAFTAYACiJ0+eDApxp2AgYAvkzZtX0A7azi2AcgjgYsWK+Q9ik0YpaOPGjRNS69+CS5cuybBhw6RgwYLqogGnUTKR8VuqMsFItjh06JDkZHV+//69Bi6tNl2v4YFnUGm0bdu2kpaWppnEToR3cjPNVv/+/WXx4sWKFLyLFy9q9ab4+EP6fzpds75Pnz5Ks1KlSj5M487t27cXmkv6MpQZUBB36tRJvYZscP78ea0JELJ3qE7B+E1bTIrE1E7Ehxnzap3ttFBQt27ddE9cyACpnXn0a07wqcRMwmW8gFPTkSNHZMuWLdqlQrR169bSqlUradCggfYqdma83jlbkBJZw9ru3burJaB5/Phxr2312+vXr2XXrl1CbXKCSwC0/Sdw69YtwT3IGlRZO/INa969e9cvaWhs3LhR1q9fLxs2bJDMzMzfrvERgIMEVZIY+K/h8OHD0rRpU584MFbEwjt37vRkyUcAWlaziODKyMiQL1++eC4M5cdp06bpvgQq52I0f+rUKdm8ebNwSouIiNDx+Ph41wWAjwAQoPe29yr16tWTIUOGyN69e+XChQuh5FtpzZ49W5nr2bOn3Llzx5M+2QceUC5PO/gIwAQC6+rVqzJo0CBLcmMVnpwVEIpx+nWDKSkp2ssQcLQKJp3yG3zw4IEGIvONO9y/f1/TI0Ht1QPZGeW9V69eKsTBgwetIZcA9mYOybdt2yaTJ0+W+vXrS8WKFZWAXSDnO9UcC9Klgrgl1dReIEeOHKkMGK06Lfvjxw/p3bu3DBw40EcwzgukYgRmDuASILs0ymSTSgnyTZs2aann/ADSmTZp0kR7d84NnCdAenpSJ2O02RRKbja+f/8uVapU0THlxPYHa5ByaWmcEBcXp0p89eqVDlkCmDMxZfzfAszRdoDZuQbVG+uNHz/e2o5TH3dB3I7QvCEENyOkVHOgp+1mHWkZsATAPJiaQOZiKqeBq0UYmTBhgrUV2cfpkuY3N4TAgQMHdM6ePXv0tyUAmiIQzQLcguMclskJ4LYBDXP+NYCW0TZ3QsYC9Ez79++3fJ7LNXg014+WAIYIQeu8/ySwyc8QQnO4SCigcePG2iOZgLTTJPgRwgnEE4FsXMolAAtobZOTkzVt2WuCsU7lypW1QyQwhw8fLtyaLV++PCAkA5EAANZA0+vWLTExUdasWeMTQ9Qi5rOnAU8BzCDPJ0+e6Fl4+vTpeuFK20u3aYT5kyeZiYz27ds3rSsoyQSlfW/7OzHAZTA3dI8ePbKG/ApgzfznhU25LcCdiBmDaJHcTar0Qv5PwDmA+dxcmxaFGkCrQAIh+3DZawcEJS5MO8FVvx2CFsC+OFTvdKDc/WBNGOUqpkePHlqwqBV85zyCCzkhVwgAUwQymuZARTXHIjwJ2gULFmhcOpnnd64RwM4c/2AxaP/u9Z4rBfBiNLtvvwA4uY2TXQ3xdAAAAABJRU5ErkJggg==;" vertex="1" parent="1">
          <mxGeometry x="595.05" y="20" width="37.89" height="30" as="geometry" />
        </mxCell>
        <mxCell id="z12aYxha3YP1zWm_-wce-102" value="&lt;font style=&quot;font-size: 9px&quot;&gt;*입력정보&lt;br&gt;&lt;span style=&quot;font-family: &amp;#34;맑은 고딕&amp;#34;&quot;&gt;프로젝트명, 신청기간, 협업희망기술&lt;br&gt;프로젝트한줄소개, 프로젝트 소개이미지&lt;br&gt;&lt;/span&gt;&lt;/font&gt;" style="text;html=1;resizable=0;autosize=1;align=left;verticalAlign=middle;points=[];fillColor=none;strokeColor=none;rounded=0;" vertex="1" parent="1">
          <mxGeometry x="580" y="50" width="190" height="50" as="geometry" />
        </mxCell>
      </root>
    </mxGraphModel>
  </diagram>
</mxfile>
